<svg width="32" height="32" viewBox="0 0 32 32" fill="none" xmlns="http://www.w3.org/2000/svg">
<rect width="32" height="32" rx="8" fill="#00B651"/>
<path d="M21.6525 20.5769H26V24.633H21.6525V20.5769Z" fill="white"/>
<path d="M13.5292 25.0216C12.0072 25.0216 10.6956 24.7706 9.5946 24.2686C8.49355 23.7667 7.63538 23.0623 7.02009 22.1556C6.42099 21.2327 6.08096 20.1478 6 18.901L10.2261 18.7067C10.307 19.3382 10.4852 19.8725 10.7604 20.3097C11.0357 20.7307 11.4 21.0546 11.8534 21.2812C12.3229 21.5079 12.8977 21.6213 13.5778 21.6213C14.4036 21.6213 15.0351 21.4755 15.4723 21.1841C15.9256 20.8926 16.1523 20.4555 16.1523 19.8725C16.1523 19.5001 16.0633 19.1844 15.8851 18.9253C15.707 18.6663 15.367 18.4315 14.8651 18.221C14.3631 17.9943 13.6345 17.7757 12.6792 17.5652C11.1085 17.2252 9.86986 16.8447 8.96311 16.4237C8.05637 15.9865 7.38441 15.4441 6.94723 14.7964C6.52624 14.1487 6.31574 13.3148 6.31574 12.2947C6.31574 11.2423 6.58291 10.3193 7.11724 9.52593C7.65157 8.73253 8.42069 8.11724 9.42458 7.68006C10.4447 7.22669 11.6429 7 13.0192 7C14.4603 7 15.6908 7.25097 16.7109 7.75292C17.7472 8.25487 18.5487 8.95112 19.1154 9.84168C19.6821 10.7322 20.0303 11.7685 20.1598 12.9505L15.958 13.1448C15.9256 12.5781 15.7799 12.0923 15.5208 11.6875C15.2618 11.2666 14.9136 10.9508 14.4765 10.7403C14.0555 10.5136 13.5535 10.4003 12.9706 10.4003C12.2258 10.4003 11.6348 10.5622 11.1976 10.8861C10.7766 11.2099 10.5661 11.6309 10.5661 12.149C10.5661 12.5538 10.6633 12.8857 10.8576 13.1448C11.0681 13.4039 11.4 13.6306 11.8534 13.8249C12.3229 14.003 12.9868 14.173 13.845 14.3349C15.4642 14.6426 16.7514 15.0474 17.7067 15.5493C18.6621 16.0351 19.3502 16.618 19.7712 17.298C20.1922 17.9619 20.4027 18.7553 20.4027 19.6782C20.4027 20.7793 20.1274 21.7346 19.5769 22.5442C19.0264 23.3376 18.233 23.9529 17.1967 24.3901C16.1604 24.8111 14.9379 25.0216 13.5292 25.0216Z" fill="white" fill-opacity="0.45"/>
<path d="M12.6792 17.5652C13.6345 17.7756 14.3632 17.9942 14.8651 18.2209C18.1518 19.3007 19.5574 20.2569 19.577 22.5442C20.1275 21.7346 20.4027 20.7792 20.4027 19.6782C20.4027 18.7553 20.1922 17.9619 19.7713 17.298C19.3503 16.6179 18.6621 16.035 17.7068 15.5493C16.7515 15.0473 15.4642 14.6425 13.845 14.3349C12.9869 14.1729 12.323 14.0029 11.8534 13.8248C8.2117 12.6839 7.2079 11.7274 7.11729 9.52588C6.58296 10.3193 6.3158 11.2422 6.3158 12.2947C6.3158 13.3148 6.52629 14.1487 6.94728 14.7963C7.38446 15.444 8.05642 15.9864 8.96317 16.4236C9.86991 16.8446 11.1086 17.2251 12.6792 17.5652Z" fill="white"/>
</svg>
